<svg width="44" height="44" viewBox="0 0 44 44" fill="none" xmlns="http://www.w3.org/2000/svg">
<path d="M16.5 9.16666H12.8333C11.8208 9.16666 11 9.98747 11 11V33C11 34.0125 11.8208 34.8333 12.8333 34.8333H16.5C17.5125 34.8333 18.3333 34.0125 18.3333 33V11C18.3333 9.98747 17.5125 9.16666 16.5 9.16666Z" stroke="white" stroke-width="1.5" stroke-linecap="round" stroke-linejoin="round"/>
<path d="M31.1667 9.16666H27.5C26.4875 9.16666 25.6667 9.98747 25.6667 11V33C25.6667 34.0125 26.4875 34.8333 27.5 34.8333H31.1667C32.1792 34.8333 33 34.0125 33 33V11C33 9.98747 32.1792 9.16666 31.1667 9.16666Z" stroke="white" stroke-width="1.5" stroke-linecap="round" stroke-linejoin="round"/>
</svg>
